<?xml version="1.0" encoding="utf-8"?>
<!-- Generator: Adobe Illustrator 16.0.0, SVG Export Plug-In . SVG Version: 6.00 Build 0)  -->
<!DOCTYPE svg PUBLIC "-//W3C//DTD SVG 1.1//EN" "http://www.w3.org/Graphics/SVG/1.1/DTD/svg11.dtd">
<svg version="1.1" id="Layer_1" xmlns="http://www.w3.org/2000/svg" xmlns:xlink="http://www.w3.org/1999/xlink" x="0px" y="0px"
	 width="100%" height="100%" viewBox="0 0 1080 1080" enable-background="new 0 0 1080 1080" xml:space="preserve">
<rect x="595.601" y="759.331" transform="matrix(0.7071 0.7071 -0.7071 0.7071 829.2045 -251.9929)" fill="#1F1F66" width="246.373" height="231.237"/>
<rect x="758.441" y="596.489" transform="matrix(0.7071 0.7071 -0.7071 0.7071 761.7552 -414.8331)" fill="#2E2E99" width="246.374" height="231.236"/>
<rect x="747.902" y="263.969" transform="matrix(0.7071 0.7071 -0.7071 0.7071 523.5427 -504.7736)" fill="#1F1FCC" width="246.375" height="231.238"/>
<rect x="574.401" y="90.47" transform="matrix(0.7071 0.7071 -0.7071 0.7071 350.0523 -432.9108)" fill="#21CC21" width="246.372" height="231.237"/>
<rect x="411.561" y="253.309" transform="matrix(0.7071 0.7071 -0.7071 0.7071 417.4922 -270.0671)" fill="#309930" width="246.375" height="231.238"/>
<rect x="75.22" y="242.65" transform="matrix(0.7071 0.7071 -0.7071 0.7071 311.4457 -35.3604)" fill="#993030" width="246.374" height="231.238"/>
<rect x="85.758" y="575.17" transform="matrix(0.7071 0.7071 -0.7071 0.7071 549.6585 54.5798)" fill="#991717" width="246.375" height="231.238"/>
<rect x="259.258" y="748.673" transform="matrix(0.7071 0.7071 -0.7071 0.7071 723.1647 -17.2836)" fill="#662020" width="246.375" height="231.235"/>
<polygon fill="#216621" points="364.904,310.78 226.539,172.412 356.402,42.545 494.768,180.914 "/>
<rect x="595.601" y="759.331" transform="matrix(0.7071 0.7071 -0.7071 0.7071 829.2045 -251.9929)" fill="#1F1F66" width="246.373" height="231.237"/>
<rect x="758.441" y="596.489" transform="matrix(0.7071 0.7071 -0.7071 0.7071 761.7552 -414.8331)" fill="#2E2E99" width="246.374" height="231.236"/>
<rect x="747.902" y="263.969" transform="matrix(0.7071 0.7071 -0.7071 0.7071 523.5427 -504.7736)" fill="#1F1FCC" width="246.375" height="231.238"/>
<rect x="574.401" y="90.47" transform="matrix(0.7071 0.7071 -0.7071 0.7071 350.0523 -432.9108)" fill="#21CC21" width="246.372" height="231.237"/>
<rect x="411.561" y="253.309" transform="matrix(0.7071 0.7071 -0.7071 0.7071 417.4922 -270.0671)" fill="#309930" width="246.375" height="231.238"/>
<rect x="75.22" y="242.65" transform="matrix(0.7071 0.7071 -0.7071 0.7071 311.4457 -35.3604)" fill="#993030" width="246.374" height="231.238"/>
<rect x="85.758" y="575.17" transform="matrix(0.7071 0.7071 -0.7071 0.7071 549.6585 54.5798)" fill="#991717" width="246.375" height="231.238"/>
<rect x="259.258" y="748.673" transform="matrix(0.7071 0.7071 -0.7071 0.7071 723.1647 -17.2836)" fill="#662020" width="246.375" height="231.235"/>
<polygon fill="#216621" points="364.904,310.78 226.539,172.412 356.402,42.545 494.768,180.914 "/>
</svg>
