<?xml version="1.0" encoding="utf-8"?>
<!-- Generator: Adobe Illustrator 16.0.0, SVG Export Plug-In . SVG Version: 6.00 Build 0)  -->
<!DOCTYPE svg PUBLIC "-//W3C//DTD SVG 1.1//EN" "http://www.w3.org/Graphics/SVG/1.1/DTD/svg11.dtd">
<svg version="1.1" id="Layer_1" xmlns="http://www.w3.org/2000/svg" xmlns:xlink="http://www.w3.org/1999/xlink" x="0px" y="0px"
	 width="1080px" height="1080px" viewBox="0 0 1080 1080" enable-background="new 0 0 1080 1080" xml:space="preserve">
<rect x="592.217" y="767.701" transform="matrix(0.7071 0.7071 -0.7071 0.7071 839.2676 -249.2942)" fill="#8080FF" width="256.685" height="241.483"/>
<rect x="762.274" y="597.643" transform="matrix(0.7071 0.7071 -0.7071 0.7071 768.829 -419.3508)" fill="#5959B2" width="256.684" height="241.481"/>
<rect x="751.687" y="250.809" transform="matrix(0.7071 0.7071 -0.7071 0.7071 520.4784 -513.4496)" fill="#1212AF" width="256.688" height="241.485"/>
<rect x="570.925" y="70.049" transform="matrix(0.7071 0.7071 -0.7071 0.7071 339.7242 -438.578)" fill="#66FF66" width="256.686" height="241.484"/>
<rect x="400.869" y="240.103" transform="matrix(0.7071 0.7071 -0.7071 0.7071 410.1563 -268.5201)" fill="#47B247" width="256.686" height="241.484"/>
<rect x="50.051" y="229.397" transform="matrix(0.7071 0.7071 -0.7071 0.7071 299.8353 -23.5907)" fill="#FF6666" width="256.686" height="241.485"/>
<rect x="60.635" y="576.231" transform="matrix(0.7071 0.7071 -0.7071 0.7071 548.1837 70.5101)" fill="#A50000" width="256.687" height="241.484"/>
<rect x="241.397" y="756.996" transform="matrix(0.7071 0.7071 -0.7071 0.7071 728.9572 -4.359)" fill="#661414" width="256.687" height="241.48"/>
<polygon fill="#0D7F0D" points="352.122,300.401 207.966,156.241 343.583,20.62 487.741,164.78 "/>
</svg>
